<?xml version="1.0" encoding="UTF-8"?>
<svg id="Layer_2" data-name="Layer 2" xmlns="http://www.w3.org/2000/svg" viewBox="0 0 591.73 587.48">
  <defs>
    <style>
      .cls-1 {
        fill-rule: evenodd;
        stroke-width: 0px;
      }
    </style>
  </defs>
  <g id="Layer_1-2" data-name="Layer 1">
    <path class="cls-1" d="M86.83.65c-20.88,2.48-40.43,11.21-54.73,24.46-12.49,11.56-19.44,21.54-25.1,36.02C-.17,79.47.44,59.47.08,287.64c-.22,144.31,0,208.03.77,214,1.46,11.35,6.64,26.2,12.61,36.15,16.64,27.7,41.91,44.08,75.38,48.87,5.21.75,70.24.97,213,.73,223.21-.38,207.99,0,224-5.56,33.46-11.63,59.01-41.8,64.94-76.69.9-5.3,1.11-57.65.85-216-.34-208.06-.35-209.03-2.41-216-5.25-17.71-12.62-30.61-24.66-43.16-13.09-13.65-27.54-22.24-46.46-27.62l-7.76-2.21L301.84.01C187.17-.06,90.41.23,86.83.65M218.61,31.2c-3.67,1.99-6.07,6.79-5.25,10.51.35,1.61,3.62,6.64,7.27,11.18,19.13,23.84,41.12,39.37,71.22,50.31,5.78,2.1,10.69,3.96,10.92,4.13,1.35,1.02-2.02,1.07-15.43.22-41.96-2.64-76.84-8.39-106.49-17.57-32-9.9-51.8-20.91-73.86-41.08-4.75-4.34-9.45-8.19-10.44-8.57-2.44-.91-8.06,1.56-10.06,4.42-2,2.86-2.09,7.09-.23,10.7,3.2,6.19,26.6,26.53,40.1,34.85,24.86,15.33,57.22,26.68,106.3,37.26,15.23,3.28,26.22,10.49,36.28,23.79,2.41,3.18,6.3,8.09,8.65,10.89s4.27,5.33,4.27,5.61-3.77.81-8.38,1.18c-9.92.8-23.56-.66-32.62-3.5-13.81-4.33-29.21-16.36-35.92-28.07l-3.06-5.34v4.66c-.02,6.91,2.45,18.56,5.7,26.95,7.99,20.58,28.23,39.61,56.78,53.36,6.05,2.92,12.8,5.86,15,6.53,6.09,1.87,6.18,2.61.63,5.42-16.64,8.43-40.08,6.9-60.06-3.93-3.54-1.92-6.61-3.3-6.82-3.09-.22.22,1.48,3.35,3.76,6.97,8.3,13.14,24.37,24.48,40.55,28.62,10.13,2.59,24.27,2.59,39.95,0,15.71-2.59,30.34-2.64,38.41-.12,12.22,3.8,23.22,13.55,27.21,24.11,4.63,12.24-.31,26.23-11.62,32.92-1.6.95-.02,1.1,8,.75,22.54-.98,42.46-12.76,51.34-30.36,2.84-5.62,6.98-21.82,5.86-22.94-.28-.28-3.25.89-6.61,2.58-3.36,1.7-10.04,4.41-14.85,6.03l-8.74,2.95-.87-2.22c-3.94-10.03-8.5-17.61-14.33-23.79-5.65-5.98-8.06-7.65-18.15-12.51-6.4-3.09-13.17-6.36-15.04-7.26-9.61-4.68-19.02-17.42-20.64-27.94l-.66-4.28,5.84,2.94c11.46,5.77,14.78,6.32,42.84,7.15,19.47.57,27.51,1.19,32,2.45,6.96,1.96,23.5,10.37,23.5,11.95,0,1.62-3.77,7.5-8.22,12.82l-3.96,4.75h3.34c5.6-.02,19-3.67,27.91-7.61,14.72-6.51,22.41-5.52,23.81,3.05l.62,3.82,5.65-4.6c6.66-5.43,13.23-14.82,15.34-21.94,2.12-7.15,1.94-19.18-.38-24.27-2.24-4.93-9.2-11.1-14.05-12.44-1.96-.55-12.16-.99-22.66-1-21.13,0-25.26-.74-32.65-5.83-5.59-3.84-9.94-10.57-12.71-19.65-2.66-8.73-5.83-14.19-10.87-18.74-10.21-9.23-18.59-11.76-39.14-11.83l-14.54-.05-2.86-6.04c-3.26-6.87-11.91-16.22-18.64-20.13-2.47-1.44-10.58-4.72-18-7.29-15.74-5.44-31.1-13.02-38.95-19.22-3.05-2.41-12.07-11.09-20.05-19.3-9.36-9.64-15.21-14.91-16.5-14.88-1.1.02-3.23.71-4.74,1.52M153.51,33.89c.96,5.11,4.85,14.19,8.12,18.94,4.04,5.86,16.62,17.69,22.48,21.12,7.38,4.33,16.65,7.46,30.13,10.19,6.8,1.38,12.75,2.49,13.23,2.48.48-.01-1.83-1.48-5.14-3.27-20.69-11.16-39.88-29.69-48.61-46.96l-2.91-5.75h-17.92l.61,3.25M134.34,127.07c-27.77,5.52-51.81,24.41-65.42,51.4-5.87,11.64-5.82,12.17.62,6.09,8.3-7.84,14.96-12.43,24.48-16.87,11.56-5.4,18.42-7.04,32.33-7.74l12-.6-2,2.35c-1.1,1.29-2.84,3.27-3.87,4.39-9.28,10.11-19.37,26.85-24.69,40.95-7.06,18.73-8.33,26.19-8.39,49.09-.05,18.78.12,20.66,2.76,30.77,6.81,26.11,17.48,44.46,37,63.64,19.46,19.11,41.13,31.02,69.28,38.06,19.64,4.91,33.33,6.25,92.91,9.05,12.1.57,26.28,1.5,31.5,2.07,50.45,5.46,89.78,33.96,100.14,72.57,2.96,11.03,2.98,28.58.05,40.57-3.41,13.96-11.38,29.67-19.53,38.54l-3.91,4.25h85.95l4.56-9.75c8.57-18.34,11.9-34.08,11.89-56.25,0-28.22-8.24-53.72-25.5-79-7.85-11.51-28.18-31.3-40.65-39.59-19.37-12.88-38.81-21.56-61.29-27.36-19.82-5.11-36.32-6.95-85.71-9.58-32.4-1.72-46.45-3.34-60.34-6.97-19.52-5.09-33.65-12.79-45.53-24.79-9.35-9.46-13.31-15.23-17.17-25.09-9.63-24.58-4.31-52.48,14.27-74.81l4.93-5.93-5.19-7.9c-9.31-14.18-12.85-25.56-13.82-44.44l-.67-12.96-7.5-2.35c-9.48-2.97-23.76-3.74-33.5-1.8M317.69,145.65c4.74,4.29,12.31,8.23,19.46,10.14,4.24,1.13,4.63,1.52,5.66,5.61,1.41,5.6,8.7,13.56,14.38,15.7,3.05,1.15,8.58,1.63,20.73,1.8l16.58.23-3.77-4.77c-2.42-3.06-4.73-7.78-6.45-13.17-3.07-9.65-6.61-14.5-12.75-17.47-4.06-1.96-5.93-2.09-31.25-2.05l-26.93.04,4.35,3.93M444.42,196.87c.61,1.18,2.69,2.87,2.87,3.02.17.15,3.86.93,8.19,1.74l6.11,1.14c.86.1,1.92-.02,2.27-.1l1.76-.76c.87-.46,1.06-1.46.41-2.2h0c-1.05-1.21-2.92-2.15-5.02-2.55l-4.59-.86-7.08-1.57c-2.37-.41-4.76-2.02-5.31-1.88l.12,2.24M427.84,261.37v7.87l4.56,2.22c8.75,4.25,14.05,10.43,20.56,24.01,4.73,9.87,7.11,13.56,11.66,18.1,24.67,24.63,66.97,14.23,77.32-19.02,3.37-10.82,2.78-11.03-6.35-2.27-14.41,13.83-25.06,18.86-38.47,18.18-9.51-.48-14.02-2.49-20.82-9.28-3.74-3.74-5.91-7.16-8.43-13.27-6.3-15.32-17.06-26.49-30.03-31.16-10.87-3.92-10-4.32-10,4.63M79,316.17c-2.25,8.65-3.16,16.32-3.16,26.74,0,39.55,21.13,74.85,56,93.56,19.79,10.62,39.51,15.18,76.5,17.72,43.73,3,66.75,9.51,92.5,26.18,9.7,6.28,26.68,22.8,32.29,31.41,4.88,7.49,12,21.94,14.33,29.09,1.03,3.16,2.17,5.75,2.53,5.75,1.13.01,6.75-16.68,7.81-23.23,2.6-16.03.52-34.46-5.33-47.24-7.26-15.85-25.86-32.85-44.38-40.56-15.97-6.65-27.17-8.5-60.07-9.96-23.79-1.05-35.54-2.54-51.68-6.57-33.76-8.42-55.24-20.04-76.51-41.39-17.64-17.71-30.93-38.05-36.9-56.52l-2.9-8.96-1.03,3.96M37.51,387.51c-5.96,14.91-8.34,37.42-5.69,53.92,3.14,19.53,13.22,36.91,26.96,46.47l4.44,3.09-4.44,1.85c-2.44,1.02-9.54,3.97-15.76,6.57l-11.32,4.72.54,3.5c.95,6.16,9.31,21.57,15.11,27.83l5.43,5.87,12.65-6.34c26.98-13.52,54.01-19.31,90.24-19.34,21.87-.02,40.72,2.29,53.96,6.6,17.2,5.61,34.45,15.55,47.29,27.23l6.57,5.98,27.74.6c15.26.33,28.14.35,28.64.04,1.23-.76-7.03-14.52-13.61-22.66-13.42-16.62-35.62-31.62-58.82-39.75-17.07-5.98-31.29-8.13-73.58-11.1-52.23-3.67-88.41-19.28-111.06-47.9-10.66-13.47-16.81-25.84-21.37-42.98l-2.24-8.41-1.68,4.2"/>
  </g>
</svg>