<svg width="800" height="400" viewBox="0 0 800 400" xmlns="http://www.w3.org/2000/svg"><defs><pattern id="satori_pattern_id_0" x="0" y="0" width="1" height="1" patternUnits="objectBoundingBox"><linearGradient id="satori_biid_0" x1="0" y1="0" x2="0" y2="1"><stop offset="0%" stop-color="#FFD84B"/><stop offset="100%" stop-color="#fff1f1"/></linearGradient><rect x="0" y="0" width="800" height="400" fill="url(#satori_biid_0)"/></pattern></defs><mask id="satori_om-id"><rect x="0" y="0" width="800" height="400" fill="#fff"/></mask><rect x="0" y="0" width="800" height="400" fill="url(#satori_pattern_id_0)"/><clipPath id="satori_bct-id-0"><path d="M352.2 131.7L336.2 103.5L346.6 103.5L356.5 122.3L356.9 122.3L366.9 103.5L377.2 103.5L361.3 131.7L361.3 147.2L352.2 147.2L352.2 131.7ZM388.2 147.8L388.2 147.8Q383.2 147.8 379.5 145.7Q375.9 143.7 373.9 139.9Q372.0 136.1 372.0 130.9L372.0 130.9Q372.0 125.9 373.9 122.1Q375.9 118.3 379.5 116.1Q383.0 114.0 387.8 114.0L387.8 114.0Q391.1 114.0 393.9 115.0Q396.7 116.1 398.8 118.1Q400.9 120.2 402.1 123.3Q403.2 126.5 403.2 130.6L403.2 130.6L403.2 133.1L375.6 133.1L375.6 127.5L394.7 127.5Q394.7 125.5 393.8 124.0Q393.0 122.5 391.5 121.6Q390.0 120.8 388.0 120.8L388.0 120.8Q385.9 120.8 384.3 121.7Q382.8 122.7 381.9 124.3Q381.0 125.9 380.9 127.8L380.9 127.8L380.9 133.1Q380.9 135.6 381.8 137.3Q382.8 139.1 384.4 140.1Q386.1 141.0 388.4 141.0L388.4 141.0Q389.9 141.0 391.1 140.6Q392.4 140.2 393.3 139.3Q394.2 138.5 394.6 137.2L394.6 137.2L403.0 137.8Q402.4 140.8 400.4 143.1Q398.5 145.3 395.4 146.6Q392.3 147.8 388.2 147.8ZM416.5 147.8L416.5 147.8Q413.4 147.8 410.9 146.7Q408.5 145.6 407.0 143.4Q405.6 141.3 405.6 138.0L405.6 138.0Q405.6 135.3 406.6 133.4Q407.6 131.6 409.3 130.5Q411.1 129.3 413.3 128.8Q415.5 128.2 417.9 127.9L417.9 127.9Q420.8 127.6 422.5 127.4Q424.3 127.1 425.0 126.6Q425.8 126.0 425.8 125.0L425.8 125.0L425.8 124.9Q425.8 122.8 424.6 121.7Q423.3 120.6 421.0 120.6L421.0 120.6Q418.5 120.6 417.1 121.7Q415.6 122.8 415.2 124.4L415.2 124.4L406.8 123.7Q407.4 120.7 409.3 118.6Q411.2 116.4 414.1 115.2Q417.1 114.0 421.0 114.0L421.0 114.0Q423.7 114.0 426.3 114.6Q428.8 115.3 430.7 116.6Q432.7 118.0 433.8 120.1Q434.9 122.2 434.9 125.1L434.9 125.1L434.9 147.2L426.3 147.2L426.3 142.6L426.0 142.6Q425.3 144.2 423.9 145.3Q422.6 146.5 420.8 147.1Q418.9 147.8 416.5 147.8ZM419.1 141.5L419.1 141.5Q421.1 141.5 422.6 140.7Q424.2 139.9 425.0 138.6Q425.9 137.2 425.9 135.5L425.9 135.5L425.9 132.0Q425.5 132.3 424.7 132.5Q424.0 132.7 423.1 132.9Q422.2 133.1 421.3 133.2Q420.3 133.4 419.6 133.5L419.6 133.5Q418.0 133.7 416.8 134.2Q415.6 134.7 414.9 135.6Q414.3 136.4 414.3 137.7L414.3 137.7Q414.3 139.6 415.6 140.5Q417.0 141.5 419.1 141.5ZM449.0 147.2L440.0 147.2L440.0 114.4L448.8 114.4L448.8 120.1L449.1 120.1Q450.0 117.1 452.1 115.5Q454.2 114.0 457.0 114.0L457.0 114.0Q457.7 114.0 458.4 114.0Q459.2 114.1 459.8 114.3L459.8 114.3L459.8 122.3Q459.2 122.1 458.1 122.0Q456.9 121.8 456.0 121.8L456.0 121.8Q454.0 121.8 452.4 122.7Q450.9 123.6 449.9 125.1Q449.0 126.6 449.0 128.6L449.0 128.6L449.0 147.2Z "/></clipPath><defs><pattern id="satori_pattern_id-0_0" x="0" y="0" width="1" height="1" patternUnits="objectBoundingBox"><linearGradient id="satori_biid-0_0" x1="0" y1="1" x2="1.197750508216243" y2="0.6146482807719991"><stop offset="0%" stop-color="#CC232A"/><stop offset="100%" stop-color="#F5AC27"/></linearGradient><rect x="0" y="0" width="131" height="73" fill="url(#satori_biid-0_0)"/></pattern></defs><mask id="satori_om-id-0"><rect x="335" y="91" width="131" height="73" fill="#fff"/></mask><rect x="335" y="91" width="131" height="73" fill="url(#satori_pattern_id-0_0)" clip-path="url(#satori_bct-id-0)"/><clipPath id="satori_bct-id-1"><path d="M339.4 220.8L339.4 220.8Q334.4 220.8 330.8 218.7Q327.2 216.6 325.3 212.8Q323.3 209.0 323.3 203.9L323.3 203.9Q323.3 198.9 325.3 195.1Q327.2 191.2 330.8 189.1Q334.4 187.0 339.4 187.0L339.4 187.0Q344.4 187.0 348.0 189.1Q351.6 191.2 353.6 195.1Q355.5 198.9 355.5 203.9L355.5 203.9Q355.5 209.0 353.6 212.8Q351.6 216.6 348.0 218.7Q344.4 220.8 339.4 220.8ZM339.5 213.8L339.5 213.8Q341.7 213.8 343.2 212.5Q344.7 211.2 345.5 209.0Q346.3 206.7 346.3 203.9L346.3 203.9Q346.3 201.0 345.5 198.8Q344.7 196.5 343.2 195.2Q341.7 193.9 339.5 193.9L339.5 193.9Q337.2 193.9 335.6 195.2Q334.1 196.5 333.3 198.8Q332.5 201.0 332.5 203.9L332.5 203.9Q332.5 206.7 333.3 209.0Q334.1 211.2 335.6 212.5Q337.2 213.8 339.5 213.8ZM356.8 187.4L377.0 187.4L377.0 194.3L356.8 194.3L356.8 187.4ZM370.5 220.2L361.5 220.2L361.5 185.1Q361.5 181.5 362.9 179.2Q364.3 176.8 366.7 175.7Q369.1 174.5 372.2 174.5L372.2 174.5Q374.3 174.5 376.0 174.8Q377.8 175.1 378.6 175.4L378.6 175.4L377.0 182.2Q376.5 182.0 375.7 181.9Q374.9 181.7 374.1 181.7L374.1 181.7Q372.1 181.7 371.3 182.6Q370.5 183.6 370.5 185.2L370.5 185.2L370.5 220.2Z M390.2 187.4L409.9 187.4L409.9 194.3L390.2 194.3L390.2 187.4ZM394.7 211.3L394.7 179.6L403.7 179.6L403.7 210.1Q403.7 211.4 404.1 212.1Q404.5 212.7 405.2 213.0Q405.9 213.3 406.8 213.3L406.8 213.3Q407.5 213.3 408.1 213.2Q408.7 213.1 409.1 213.0L409.1 213.0L410.5 219.8Q409.8 220.0 408.6 220.3Q407.3 220.5 405.6 220.6L405.6 220.6Q402.3 220.7 399.8 219.7Q397.4 218.7 396.0 216.6Q394.6 214.5 394.7 211.3L394.7 211.3ZM423.6 201.2L423.6 201.2L423.6 220.2L414.5 220.2L414.5 176.5L423.3 176.5L423.3 193.2L423.7 193.2Q424.8 190.3 427.3 188.7Q429.7 187.0 433.5 187.0L433.5 187.0Q436.9 187.0 439.4 188.5Q442.0 190.0 443.4 192.7Q444.8 195.5 444.8 199.3L444.8 199.3L444.8 220.2L435.7 220.2L435.7 200.9Q435.7 197.9 434.2 196.2Q432.6 194.5 429.9 194.5L429.9 194.5Q428.0 194.5 426.6 195.3Q425.2 196.1 424.4 197.6Q423.6 199.1 423.6 201.2ZM464.9 220.8L464.9 220.8Q459.8 220.8 456.2 218.7Q452.5 216.7 450.6 212.9Q448.6 209.1 448.6 203.9L448.6 203.9Q448.6 198.9 450.6 195.1Q452.5 191.3 456.1 189.1Q459.7 187.0 464.5 187.0L464.5 187.0Q467.7 187.0 470.5 188.0Q473.3 189.1 475.4 191.1Q477.5 193.2 478.7 196.3Q479.9 199.5 479.9 203.6L479.9 203.6L479.9 206.1L452.2 206.1L452.2 200.5L471.3 200.5Q471.3 198.5 470.5 197.0Q469.6 195.5 468.1 194.6Q466.6 193.8 464.6 193.8L464.6 193.8Q462.6 193.8 461.0 194.7Q459.4 195.7 458.5 197.3Q457.6 198.9 457.6 200.8L457.6 200.8L457.6 206.1Q457.6 208.6 458.5 210.3Q459.4 212.1 461.1 213.1Q462.7 214.0 465.0 214.0L465.0 214.0Q466.5 214.0 467.8 213.6Q469.0 213.2 469.9 212.3Q470.8 211.5 471.3 210.2L471.3 210.2L479.7 210.8Q479.0 213.8 477.1 216.1Q475.1 218.3 472.0 219.6Q468.9 220.8 464.9 220.8Z "/></clipPath><defs><pattern id="satori_pattern_id-1_0" x="0" y="0" width="1" height="1" patternUnits="objectBoundingBox"><linearGradient id="satori_biid-1_0" x1="0" y1="1" x2="1.134011792265334" y2="0.8130959074604759"><stop offset="0%" stop-color="#CC232A"/><stop offset="100%" stop-color="#F5AC27"/></linearGradient><rect x="0" y="0" width="159" height="72" fill="url(#satori_biid-1_0)"/></pattern></defs><mask id="satori_om-id-1"><rect x="321" y="164" width="159" height="72" fill="#fff"/></mask><rect x="321" y="164" width="159" height="72" fill="url(#satori_pattern_id-1_0)" clip-path="url(#satori_bct-id-1)"/><clipPath id="satori_bct-id-2"><path d="M317.3 292.2L317.3 292.2L301.8 292.2L301.8 248.5L317.4 248.5Q324.0 248.5 328.7 251.1Q333.5 253.7 336.0 258.6Q338.6 263.5 338.6 270.3L338.6 270.3Q338.6 277.1 336.0 282.0Q333.5 286.9 328.7 289.5Q323.9 292.2 317.3 292.2ZM311.0 256.4L311.0 284.3L316.9 284.3Q321.0 284.3 323.8 282.8Q326.6 281.3 328.0 278.3Q329.4 275.2 329.4 270.3L329.4 270.3Q329.4 265.5 328.0 262.4Q326.6 259.3 323.8 257.9Q321.0 256.4 316.9 256.4L316.9 256.4L311.0 256.4ZM352.3 292.2L343.3 292.2L343.3 259.4L352.1 259.4L352.1 265.1L352.4 265.1Q353.3 262.1 355.4 260.5Q357.5 259.0 360.3 259.0L360.3 259.0Q360.9 259.0 361.7 259.0Q362.5 259.1 363.1 259.3L363.1 259.3L363.1 267.3Q362.5 267.1 361.3 267.0Q360.2 266.8 359.3 266.8L359.3 266.8Q357.3 266.8 355.7 267.7Q354.1 268.6 353.2 270.1Q352.3 271.6 352.3 273.6L352.3 273.6L352.3 292.2ZM374.2 292.8L374.2 292.8Q371.1 292.8 368.6 291.7Q366.2 290.6 364.7 288.4Q363.3 286.3 363.3 283.0L363.3 283.0Q363.3 280.3 364.3 278.4Q365.3 276.6 367.1 275.5Q368.8 274.3 371.0 273.8Q373.2 273.2 375.6 272.9L375.6 272.9Q378.5 272.6 380.2 272.4Q382.0 272.1 382.8 271.6Q383.6 271.0 383.6 270.0L383.6 270.0L383.6 269.9Q383.6 267.8 382.3 266.7Q381.0 265.6 378.7 265.6L378.7 265.6Q376.2 265.6 374.8 266.7Q373.3 267.8 372.9 269.4L372.9 269.4L364.5 268.7Q365.1 265.7 367.0 263.6Q368.9 261.4 371.8 260.2Q374.8 259.0 378.7 259.0L378.7 259.0Q381.5 259.0 384.0 259.6Q386.5 260.3 388.4 261.6Q390.4 263.0 391.5 265.1Q392.6 267.2 392.6 270.1L392.6 270.1L392.6 292.2L384.0 292.2L384.0 287.6L383.8 287.6Q383.0 289.2 381.7 290.3Q380.3 291.5 378.5 292.1Q376.6 292.8 374.2 292.8ZM376.8 286.5L376.8 286.5Q378.8 286.5 380.3 285.7Q381.9 284.9 382.7 283.6Q383.6 282.2 383.6 280.5L383.6 280.5L383.6 277.0Q383.2 277.3 382.5 277.5Q381.7 277.7 380.8 277.9Q379.9 278.1 379.0 278.2Q378.1 278.4 377.3 278.5L377.3 278.5Q375.7 278.7 374.5 279.2Q373.3 279.7 372.7 280.6Q372.0 281.4 372.0 282.7L372.0 282.7Q372.0 284.6 373.4 285.5Q374.7 286.5 376.8 286.5ZM412.4 305.1L412.4 305.1Q408.0 305.1 404.9 303.9Q401.7 302.7 399.9 300.6Q398.0 298.6 397.5 296.0L397.5 296.0L405.9 294.9Q406.2 295.8 407.1 296.7Q407.9 297.6 409.3 298.1Q410.7 298.6 412.6 298.6L412.6 298.6Q415.6 298.6 417.5 297.2Q419.5 295.7 419.5 292.4L419.5 292.4L419.5 286.4L419.1 286.4Q418.5 287.7 417.3 288.9Q416.1 290.2 414.2 290.9Q412.3 291.7 409.7 291.7L409.7 291.7Q406.1 291.7 403.0 290.0Q400.0 288.3 398.2 284.7Q396.5 281.2 396.5 275.7L396.5 275.7Q396.5 270.2 398.3 266.4Q400.1 262.7 403.1 260.9Q406.1 259.0 409.7 259.0L409.7 259.0Q412.5 259.0 414.3 259.9Q416.2 260.9 417.3 262.2Q418.5 263.6 419.1 264.9L419.1 264.9L419.4 264.9L419.4 259.4L428.4 259.4L428.4 292.5Q428.4 296.7 426.4 299.5Q424.3 302.3 420.7 303.7Q417.1 305.1 412.4 305.1ZM412.6 284.9L412.6 284.9Q414.8 284.9 416.3 283.8Q417.9 282.7 418.7 280.6Q419.5 278.6 419.5 275.7L419.5 275.7Q419.5 272.8 418.7 270.7Q417.9 268.6 416.3 267.4Q414.8 266.2 412.6 266.2L412.6 266.2Q410.4 266.2 408.8 267.4Q407.3 268.6 406.5 270.8Q405.7 272.9 405.7 275.7L405.7 275.7Q405.7 278.5 406.5 280.6Q407.3 282.6 408.9 283.8Q410.4 284.9 412.6 284.9ZM448.5 292.8L448.5 292.8Q443.5 292.8 439.9 290.7Q436.3 288.6 434.3 284.8Q432.4 281.0 432.4 275.9L432.4 275.9Q432.4 270.9 434.3 267.1Q436.3 263.2 439.9 261.1Q443.5 259.0 448.5 259.0L448.5 259.0Q453.4 259.0 457.0 261.1Q460.6 263.2 462.6 267.1Q464.6 270.9 464.6 275.9L464.6 275.9Q464.6 281.0 462.6 284.8Q460.6 288.6 457.0 290.7Q453.4 292.8 448.5 292.8ZM448.5 285.8L448.5 285.8Q450.8 285.8 452.3 284.5Q453.8 283.2 454.6 281.0Q455.3 278.7 455.3 275.9L455.3 275.9Q455.3 273.0 454.6 270.8Q453.8 268.5 452.3 267.2Q450.8 265.9 448.5 265.9L448.5 265.9Q446.2 265.9 444.7 267.2Q443.1 268.5 442.4 270.8Q441.6 273.0 441.6 275.9L441.6 275.9Q441.6 278.7 442.4 281.0Q443.1 283.2 444.7 284.5Q446.2 285.8 448.5 285.8ZM477.6 273.2L477.6 273.2L477.6 292.2L468.5 292.2L468.5 259.4L477.1 259.4L477.1 265.2L477.5 265.2Q478.6 262.4 481.2 260.7Q483.7 259.0 487.4 259.0L487.4 259.0Q490.8 259.0 493.3 260.5Q495.8 262.0 497.3 264.7Q498.7 267.5 498.7 271.3L498.7 271.3L498.7 292.2L489.6 292.2L489.6 272.9Q489.6 269.9 488.0 268.2Q486.5 266.5 483.8 266.5L483.8 266.5Q481.9 266.5 480.5 267.3Q479.1 268.1 478.4 269.6Q477.6 271.1 477.6 273.2Z "/></clipPath><defs><pattern id="satori_pattern_id-2_0" x="0" y="0" width="1" height="1" patternUnits="objectBoundingBox"><linearGradient id="satori_biid-2_0" x1="0" y1="0" x2="1" y2="0"><stop offset="0%" stop-color="#CC232A"/><stop offset="100%" stop-color="#CC232A"/></linearGradient><rect x="0" y="0" width="204" height="73" fill="url(#satori_biid-2_0)"/></pattern></defs><mask id="satori_om-id-2"><rect x="298" y="236" width="204" height="73" fill="#fff"/></mask><rect x="298" y="236" width="204" height="73" fill="url(#satori_pattern_id-2_0)" clip-path="url(#satori_bct-id-2)"/></svg>