<?xml version="1.0" standalone="no"?>
<!DOCTYPE svg PUBLIC "-//W3C//DTD SVG 20010904//EN"
 "http://www.w3.org/TR/2001/REC-SVG-20010904/DTD/svg10.dtd">
<svg version="1.0" xmlns="http://www.w3.org/2000/svg"
 width="592.000000pt" height="592.000000pt" viewBox="0 0 592.000000 592.000000"
 preserveAspectRatio="xMidYMid meet">
<metadata>
Created by potrace 1.14, written by Peter Selinger 2001-2017
</metadata>
<g transform="translate(0.000000,592.000000) scale(0.100000,-0.100000)"
fill="#000000" stroke="none">
<path d="M765 5875 c-190 -44 -351 -132 -483 -266 -91 -92 -152 -182 -203
-301 -48 -111 -58 -152 -65 -266 -4 -48 -8 -996 -9 -2107 -4 -2176 -6 -2063
47 -2225 47 -144 130 -279 241 -390 142 -143 293 -222 527 -277 70 -16 198
-17 1945 -17 1743 0 2299 5 2385 20 55 9 186 60 254 98 183 102 328 254 415
431 53 108 72 165 91 270 5 29 8 925 6 2160 l-3 2110 -28 85 c-55 168 -133
296 -256 419 -116 115 -220 179 -399 245 l-85 31 -2140 1 -2140 2 -100 -23z
m967 -328 c85 -169 266 -351 466 -468 l67 -40 -45 6 c-77 11 -205 43 -274 69
-89 34 -156 80 -244 168 -80 79 -124 149 -152 241 -18 56 -18 58 0 65 10 4 50
6 89 4 l71 -4 22 -41z m685 -112 c92 -91 191 -181 218 -199 79 -53 205 -113
335 -161 171 -63 220 -88 277 -143 50 -46 114 -137 127 -178 6 -20 14 -21 139
-23 144 -1 174 -4 239 -21 114 -31 217 -124 257 -230 62 -167 105 -231 179
-269 68 -34 70 -34 407 -42 124 -3 145 -10 204 -68 57 -57 71 -99 67 -207 -3
-111 -42 -192 -138 -287 -38 -37 -73 -65 -78 -62 -4 3 -11 18 -15 34 -3 16
-15 37 -25 46 -28 25 -116 15 -210 -25 -108 -45 -300 -92 -300 -73 0 5 56 79
76 100 6 6 17 25 24 43 16 38 9 45 -106 100 -128 61 -156 65 -478 75 -203 7
-290 22 -376 65 -33 16 -62 30 -66 30 -13 0 10 -88 36 -141 50 -98 115 -152
279 -232 122 -59 156 -80 207 -131 60 -60 110 -135 149 -227 l20 -47 87 30
c47 16 112 42 144 57 33 16 63 25 67 21 13 -11 -29 -162 -63 -229 -78 -156
-289 -282 -485 -290 -33 -2 -63 -5 -67 -7 -5 -3 -12 -3 -16 0 -5 3 13 28 39
55 83 86 101 200 50 306 -34 69 -59 98 -126 150 -109 82 -212 102 -435 81 -41
-4 -77 -9 -80 -11 -14 -9 -170 -19 -257 -18 -172 4 -322 68 -457 193 -50 46
-132 158 -123 167 3 3 39 -11 79 -30 40 -19 96 -42 123 -51 153 -48 338 -40
449 18 47 25 55 42 24 51 -50 16 -227 101 -298 143 -283 170 -433 362 -486
624 -6 30 -14 138 -10 138 1 0 17 -21 33 -47 64 -99 179 -195 296 -249 48 -21
87 -32 197 -51 52 -9 237 -6 255 5 14 7 1 27 -76 123 -94 115 -131 155 -178
188 -62 45 -154 81 -266 105 -66 15 -163 38 -215 52 -52 15 -102 28 -110 29
-52 12 -269 83 -349 115 -286 114 -458 224 -663 427 -78 76 -102 118 -93 162
6 31 20 46 61 66 33 15 37 15 63 -2 24 -15 125 -100 165 -139 24 -23 165 -122
222 -157 243 -146 643 -266 1074 -322 25 -3 56 -7 70 -10 26 -4 133 -15 210
-21 196 -15 262 -18 300 -15 23 2 -3 15 -101 51 -194 71 -368 171 -512 295
-93 80 -215 219 -252 286 -25 48 -26 49 -9 84 17 36 54 64 86 65 9 0 92 -74
185 -165z m-802 -810 c54 -10 135 -36 136 -44 2 -8 4 -44 13 -161 13 -177 51
-283 169 -461 17 -25 16 -27 -9 -55 -45 -51 -119 -167 -146 -229 -98 -224 -83
-468 40 -665 52 -83 195 -218 286 -269 215 -122 383 -156 916 -186 235 -13
355 -21 440 -30 25 -3 70 -7 100 -10 30 -3 62 -8 70 -10 8 -2 35 -7 60 -10
197 -27 486 -135 687 -256 182 -110 385 -298 498 -464 116 -167 191 -349 230
-555 13 -69 13 -364 -1 -450 -16 -104 -59 -239 -111 -345 l-39 -80 -422 0
c-232 0 -422 1 -422 3 0 1 20 27 44 56 181 223 250 564 165 820 -122 365 -514
631 -1004 681 -61 6 -213 15 -327 20 -236 10 -553 31 -628 41 -19 3 -51 7 -70
10 -189 25 -419 96 -559 172 -259 139 -488 371 -609 617 -42 84 -88 219 -107
312 -23 107 -22 496 1 534 2 3 6 21 9 40 29 162 178 449 309 594 25 28 46 53
46 57 0 7 -76 4 -191 -7 -160 -15 -342 -101 -471 -221 -78 -73 -81 -63 -17 54
88 158 199 282 334 370 73 48 207 108 264 119 13 2 40 7 60 12 43 9 199 7 256
-4z m2750 -1290 c138 -51 221 -132 303 -293 97 -192 168 -246 327 -246 76 1
100 5 148 27 75 34 130 73 217 153 39 36 74 63 77 60 10 -10 -36 -141 -66
-188 -107 -168 -321 -254 -508 -204 -147 39 -239 123 -332 302 -69 134 -124
200 -202 240 l-48 24 1 57 c0 58 6 93 13 93 3 0 34 -11 70 -25z m-3465 -815
c29 -57 112 -182 158 -240 240 -297 497 -465 861 -561 177 -46 292 -63 506
-74 172 -9 290 -16 315 -20 14 -2 50 -6 80 -10 126 -15 286 -75 398 -148 136
-88 262 -227 313 -343 59 -136 74 -354 34 -509 -27 -105 -54 -177 -65 -170 -4
2 -17 33 -30 67 -32 89 -114 243 -162 306 -55 71 -224 231 -293 276 -168 112
-403 201 -605 230 -86 13 -201 26 -270 31 -189 14 -216 16 -240 20 -14 2 -50
7 -80 10 -328 38 -612 177 -799 391 -123 140 -217 341 -247 526 -12 71 -11
271 1 345 21 126 23 126 65 16 20 -54 47 -118 60 -143z m-484 -535 c25 -151
150 -377 285 -516 221 -226 573 -363 1009 -394 114 -8 200 -15 250 -20 25 -3
68 -7 95 -10 64 -6 142 -16 169 -21 12 -2 47 -9 79 -15 224 -40 510 -193 683
-364 97 -96 228 -284 210 -302 -3 -4 -88 -5 -188 -4 -341 4 -367 6 -386 22
-33 29 -117 101 -137 118 -20 16 -141 91 -200 123 -208 113 -521 159 -915 135
-126 -8 -149 -11 -260 -33 -41 -8 -85 -16 -96 -18 -64 -12 -252 -84 -362 -137
l-125 -62 -29 34 c-81 95 -161 237 -172 305 l-6 30 155 65 c85 35 155 66 155
69 0 3 -16 16 -36 30 -88 59 -181 182 -227 299 -10 25 -27 84 -37 131 -34 150
-10 448 45 565 20 41 30 34 41 -30z"/>
<path d="M3150 4482 c-31 -11 105 -102 197 -133 63 -20 64 -22 92 -82 29 -64
64 -102 123 -134 27 -14 64 -18 206 -21 171 -4 191 0 156 29 -20 16 -61 97
-85 167 -18 53 -51 107 -79 130 -49 40 -78 44 -343 46 -141 0 -262 -1 -267 -2z"/>
<path d="M4440 3952 c0 -40 49 -63 162 -78 40 -5 49 -3 55 11 9 24 -17 41 -72
50 -25 3 -47 6 -50 6 -2 0 -23 6 -46 14 -51 18 -49 19 -49 -3z"/>
</g>
</svg>
